# Blender 5.1.2
# www.blender.org
o body
v -1.107380 0.691376 0.395345
v -1.324033 0.663816 0.343384
v -1.107380 0.692330 0.322461
v -1.086276 0.532692 0.393268
v -1.116242 0.528880 0.386081
v -1.086276 0.533646 0.320384
v -1.090806 0.487907 0.389113
v -1.089449 0.489034 0.316555
v -1.113529 0.530180 0.313848
v -1.302930 0.506086 0.268423
v -1.324033 0.664770 0.270500
v -1.302930 0.505132 0.341307
v -0.000000 1.223350 -1.179367
v -0.732972 1.207237 -1.179368
v -0.714963 1.149760 -1.942180
v -0.000000 1.217993 0.424729
v 0.000001 1.165873 -1.942180
v 0.714964 1.149760 -1.942180
v 0.732972 1.207237 -1.179367
v 0.769172 1.201881 0.383997
v 1.098141 0.555528 0.542325
v 1.049311 0.545906 -1.349307
v 1.062795 -0.568137 0.528596
v 1.053535 -0.550117 -1.004659
v 1.005055 0.455370 -2.306818
v 1.114760 0.029175 -1.696870
v 1.100998 -0.167422 -1.464007
v 1.052626 -0.545562 -1.392143
v 0.557204 -0.482834 -1.371613
v 1.041767 -0.565610 1.107820
v 0.558934 -0.471967 1.167884
v 0.520088 -0.470997 -2.378709
v 0.605575 -0.104693 -1.443476
v 0.570015 -0.093441 -2.303055
v 0.619338 0.091904 -1.676339
v 0.602061 0.095979 -2.055733
v 1.065438 -0.156169 -2.323585
v 1.097483 0.033250 -2.076263
v 0.948122 -0.065704 -2.743056
v 1.015511 -0.533726 -2.399239
v 1.008326 -0.533439 -2.423632
v 0.933422 -0.532138 -2.534329
v 0.897048 -0.532126 -2.535359
v -0.897047 -0.532126 -2.535359
v -0.933421 -0.532138 -2.534329
v 0.000001 -0.065821 -2.769734
v 0.000001 -0.532126 -2.535359
v -0.520087 -0.470997 -2.378709
v -1.008325 -0.533439 -2.423632
v -0.948121 -0.065704 -2.743056
v -1.015510 -0.533726 -2.399240
v -1.065437 -0.156169 -2.323586
v -1.005054 0.455370 -2.306818
v -1.097482 0.033250 -2.076263
v -0.570014 -0.093441 -2.303056
v -0.602060 0.095979 -2.055733
v -0.557203 -0.482834 -1.371613
v -0.619337 0.091904 -1.676340
v -0.605574 -0.104693 -1.443477
v -1.052626 -0.545562 -1.392143
v -0.558934 -0.471967 1.167883
v -0.586654 -0.278127 1.174982
v -0.502634 -0.401533 2.190798
v -1.049691 -0.565278 1.183737
v -0.000000 -0.493111 2.508384
v -1.053534 -0.550117 -1.004659
v -1.062795 -0.568137 0.528596
v -1.049310 0.545906 -1.349307
v -1.041767 -0.565610 1.107820
v -1.098140 0.555528 0.542325
v -1.098140 0.547585 1.038658
v -1.077411 -0.371438 1.190836
v -1.112608 -0.095122 1.299343
v -1.131742 0.061578 1.528000
v -0.621852 -0.001811 1.283489
v -0.640986 0.154889 1.512147
v -0.563990 -0.200036 2.162899
v -0.633534 0.139715 1.863425
v -0.637044 0.165788 1.727226
v -1.127800 0.072477 1.743080
v -1.030681 0.318321 2.685352
v -1.124290 0.046404 1.879278
v -1.107288 -0.124611 2.095766
v -0.978180 -0.284622 2.645719
v -1.054746 -0.293347 2.178753
v -0.616532 -0.031300 2.079912
v -0.993390 -0.494844 2.206651
v -0.948263 -0.494461 2.461103
v -0.000000 -0.285092 2.666084
v -0.000000 0.318383 2.700266
v 1.030681 0.318321 2.685353
v 0.978179 -0.284622 2.645719
v 1.107288 -0.124611 2.095766
v 0.948263 -0.494461 2.461103
v 0.993390 -0.494844 2.206651
v 1.054746 -0.293347 2.178753
v 0.563990 -0.200036 2.162900
v 0.640985 0.154889 1.512147
v 0.633534 0.139715 1.863425
v 0.616531 -0.031300 2.079912
v 0.502634 -0.401533 2.190798
v 0.586654 -0.278127 1.174982
v 0.621852 -0.001811 1.283490
v 1.077411 -0.371438 1.190836
v 1.112608 -0.095122 1.299343
v 1.098140 0.547585 1.038658
v 1.049691 -0.565278 1.183737
v -0.000000 0.547585 1.157542
v 1.131742 0.061578 1.528000
v 1.127800 0.072477 1.743080
v 1.124290 0.046404 1.879278
v 0.637043 0.165788 1.727227
v -0.769172 1.201881 0.383997
v -1.100997 -0.167422 -1.464007
v -1.114759 0.029175 -1.696870
v -0.921364 0.390253 -2.743230
v 0.000001 0.390141 -2.769905
v 0.921366 0.390253 -2.743229
v -0.000000 -0.294181 2.745051
v -0.000000 -0.292349 2.605119
v -0.958357 -0.291498 2.540103
v -0.964484 -0.293846 2.719432
v -0.000000 -0.090574 2.774492
v 0.958357 -0.291498 2.540103
v 0.964483 -0.293846 2.719432
v 0.964483 -0.090238 2.748874
v 1.061442 -0.291987 2.577441
v 1.035181 -0.293303 2.677976
v 1.052685 -0.089696 2.707417
v 1.078946 -0.088380 2.606882
v 0.969276 -0.088407 2.608942
v 1.105666 -0.083320 2.220362
v 1.088163 -0.287751 2.253888
v 0.995996 -0.287778 2.255947
v 0.995996 -0.083347 2.222422
v -0.000000 -0.088742 2.634560
v -0.964483 -0.090238 2.748873
v -0.969276 -0.088407 2.608941
v -1.052686 -0.089696 2.707417
v -1.078947 -0.088380 2.606882
v -1.105667 -0.083320 2.220362
v -0.995997 -0.083347 2.222421
v -0.995997 -0.287778 2.255947
v -1.061442 -0.291987 2.577441
v -1.088163 -0.287751 2.253888
v -1.035181 -0.293303 2.677976
v 0.000001 -0.326363 -2.811492
v -0.886045 -0.329046 -2.606544
v 0.000001 -0.328347 -2.659937
v -0.892171 -0.326698 -2.785873
v 0.000001 -0.122083 -2.836903
v 0.886046 -0.329046 -2.606544
v 0.892173 -0.326698 -2.785873
v 0.892172 -0.122419 -2.811283
v 0.989131 -0.328557 -2.643881
v 0.962870 -0.327241 -2.744416
v 0.980375 -0.122962 -2.769827
v 1.006636 -0.124278 -2.669292
v 0.896965 -0.124251 -2.671352
v 1.033356 -0.126675 -2.486157
v 1.015852 -0.330130 -2.523713
v 0.923686 -0.330103 -2.525772
v 0.923686 -0.126648 -2.488217
v 0.000001 -0.123915 -2.696971
v -0.892171 -0.122419 -2.811284
v -0.896964 -0.124251 -2.671352
v -0.980374 -0.122962 -2.769828
v -1.033354 -0.126675 -2.486158
v -1.006634 -0.124278 -2.669293
v -0.923685 -0.126648 -2.488217
v -0.923685 -0.330103 -2.525773
v -0.989130 -0.328557 -2.643881
v -1.015851 -0.330130 -2.523714
v -0.962869 -0.327241 -2.744416
v 1.107381 0.691376 0.395345
v 1.107381 0.692330 0.322462
v 1.324034 0.663816 0.343384
v 1.086277 0.532692 0.393268
v 1.116242 0.528880 0.386081
v 1.086277 0.533646 0.320384
v 1.090806 0.487907 0.389113
v 1.089449 0.489034 0.316555
v 1.113529 0.530180 0.313848
v 1.302930 0.506086 0.268423
v 1.324034 0.664770 0.270500
v 1.302930 0.505132 0.341307
vn -0.2278 -0.0430 0.9728
vn -0.1292 0.9915 0.0130
vn 0.9913 0.1318 0.0017
vn -0.2246 -0.0675 0.9721
vn 0.9962 -0.0866 0.0081
vn -0.8549 -0.5178 -0.0327
vn 0.2246 0.0675 -0.9721
vn 0.2278 0.0430 -0.9728
vn 0.1292 -0.9915 -0.0130
vn -0.9913 -0.1318 -0.0017
vn -0.0217 0.9998 0.0032
vn -0.0220 0.9998 0.0033
vn -0.0222 0.9969 -0.0754
vn -0.0219 0.9969 -0.0756
vn -0.0225 0.9969 -0.0751
vn 0.0217 0.9998 0.0032
vn 0.0220 0.9998 0.0033
vn 0.0213 0.9998 0.0031
vn 0.0222 0.9969 -0.0754
vn 0.0225 0.9969 -0.0751
vn 0.0219 0.9969 -0.0756
vn 0.8952 0.4422 -0.0545
vn 0.0211 0.9998 0.0029
vn 0.8929 0.4498 -0.0191
vn 0.8993 0.4367 -0.0254
vn 0.9037 0.4203 -0.0815
vn 0.9992 -0.0311 -0.0256
vn 1.0000 0.0020 -0.0060
vn 1.0000 0.0030 -0.0028
vn 1.0000 0.0030 -0.0029
vn 1.0000 0.0031 -0.0023
vn 0.9843 0.1658 -0.0612
vn 0.9929 0.0550 0.1051
vn 0.8682 -0.0168 0.4959
vn -0.0633 -0.1785 -0.9819
vn -0.1281 -0.9917 -0.0085
vn -0.1898 -0.9818 0.0049
vn -0.0108 -0.9999 -0.0002
vn 0.9915 -0.1246 -0.0388
vn 0.9916 -0.1235 -0.0380
vn 0.9908 -0.1288 -0.0420
vn 0.9906 -0.1297 -0.0427
vn 0.9931 -0.1075 -0.0464
vn 0.0155 -0.1984 0.9800
vn -0.0743 -0.7870 0.6124
vn 0.9635 0.1019 -0.2475
vn 0.9737 0.1017 -0.2041
vn 0.9567 -0.0699 -0.2826
vn -0.1210 -0.9907 0.0619
vn 0.7965 -0.2677 -0.5421
vn 0.0257 -0.4090 -0.9122
vn -0.0000 -0.9999 -0.0117
vn -0.0001 -0.9312 0.3646
vn -0.0000 -0.9999 -0.0118
vn -0.0257 -0.4090 -0.9122
vn -0.0000 -0.4491 -0.8935
vn 0.1181 -0.9888 0.0911
vn -0.7965 -0.2677 -0.5421
vn -0.9567 -0.0699 -0.2826
vn -0.0155 -0.1984 0.9800
vn -0.9635 0.1019 -0.2475
vn -0.9737 0.1017 -0.2041
vn 0.0743 -0.7870 0.6124
vn -0.9913 -0.1252 -0.0410
vn -0.9913 -0.1251 -0.0407
vn -0.9916 -0.1238 -0.0385
vn -0.9916 -0.1235 -0.0380
vn -0.9888 -0.1374 -0.0576
vn 0.0101 -0.9999 -0.0002
vn 0.0633 -0.1785 -0.9819
vn 0.1360 -0.9907 0.0023
vn 0.0382 -0.0311 0.9988
vn -0.9747 -0.2168 0.0543
vn -0.2270 -0.9707 0.0793
vn 0.1912 -0.9815 -0.0071
vn 0.0581 -0.9983 0.0085
vn 0.3557 -0.9346 -0.0088
vn -1.0000 0.0020 -0.0060
vn -1.0000 0.0030 -0.0029
vn -1.0000 0.0030 -0.0027
vn -1.0000 0.0031 -0.0023
vn -0.9988 -0.0319 0.0364
vn -0.9987 -0.0506 -0.0008
vn -0.9630 -0.0650 -0.2614
vn -0.9853 -0.1372 -0.1022
vn 0.0972 -0.3530 0.9305
vn -0.9815 -0.0527 -0.1843
vn -0.9970 -0.0089 -0.0773
vn 0.1715 -0.8059 0.5666
vn -0.9884 -0.1486 0.0315
vn -0.9731 -0.2282 -0.0329
vn -0.9993 -0.0307 0.0199
vn 0.1880 -0.9811 0.0463
vn 0.1775 -0.9657 -0.1894
vn -0.9275 0.3739 -0.0019
vn -0.9841 0.1682 0.0576
vn 0.1270 -0.7735 -0.6210
vn -0.9940 0.0331 0.1043
vn -0.9620 -0.2200 0.1618
vn -0.9748 -0.0980 0.2003
vn 0.0521 -0.4276 -0.9025
vn -0.9502 -0.2671 0.1608
vn -0.0056 -0.1388 -0.9903
vn -0.9445 -0.2824 0.1679
vn 0.0688 -0.9728 -0.2210
vn -0.0363 -0.6630 0.7477
vn -0.0169 -0.6040 0.7968
vn -0.0199 -0.0659 0.9976
vn -0.0152 -0.0579 0.9982
vn -0.0208 -0.0674 0.9975
vn -0.0144 -0.0565 0.9983
vn 0.0152 -0.0579 0.9982
vn 0.0144 -0.0565 0.9983
vn 0.0199 -0.0659 0.9976
vn 0.0169 -0.6040 0.7968
vn 0.0208 -0.0674 0.9975
vn 0.9748 -0.0981 0.2003
vn 0.9620 -0.2200 0.1618
vn 0.0363 -0.6630 0.7477
vn 0.9445 -0.2824 0.1679
vn 0.9502 -0.2671 0.1608
vn -0.0522 -0.4276 -0.9025
vn 0.0056 -0.1388 -0.9903
vn 0.9884 -0.1486 0.0315
vn 0.9834 -0.1808 0.0130
vn 0.8860 -0.3952 -0.2426
vn 0.9747 -0.2168 0.0543
vn -0.0382 -0.0311 0.9988
vn -0.0972 -0.3530 0.9305
vn 0.9815 -0.0527 -0.1843
vn 0.9630 -0.0650 -0.2614
vn 0.9853 -0.1372 -0.1022
vn 0.0159 0.9890 0.1469
vn 0.0743 0.7238 0.6860
vn 0.8905 0.4550 0.0073
vn 0.0021 0.9904 0.1380
vn 0.9902 0.1271 0.0583
vn 0.9987 -0.0506 -0.0008
vn 0.9970 -0.0089 -0.0773
vn 0.9275 0.3739 -0.0019
vn -0.1880 -0.9811 0.0463
vn -0.1715 -0.8059 0.5666
vn 0.9841 0.1682 0.0576
vn -0.1775 -0.9657 -0.1894
vn -0.1270 -0.7735 -0.6210
vn 0.9940 0.0331 0.1043
vn -0.0159 0.9890 0.1469
vn -0.0743 0.7238 0.6860
vn -0.0511 0.7369 0.6741
vn 0.0511 0.7369 0.6741
vn -0.0211 0.9998 0.0029
vn -0.8929 0.4498 -0.0191
vn -0.8905 0.4550 0.0073
vn -0.0688 -0.9728 -0.2210
vn -0.0021 0.9904 0.1380
vn -0.9902 0.1271 0.0583
vn -0.8993 0.4367 -0.0254
vn -0.9992 -0.0311 -0.0256
vn -0.9037 0.4203 -0.0815
vn -0.8953 0.4422 -0.0545
vn -0.9843 0.1658 -0.0612
vn -0.8682 -0.0168 0.4959
vn -0.9929 0.0550 0.1051
vn 0.1223 -0.7548 -0.6445
vn -0.9806 0.1914 -0.0426
vn 0.1258 -0.9920 -0.0049
vn -0.9789 0.0574 -0.1963
vn -0.8474 0.4767 -0.2336
vn -0.0183 0.7287 -0.6846
vn -0.0285 0.0005 -0.9996
vn 0.0285 0.0005 -0.9996
vn 0.0183 0.7287 -0.6846
vn 0.9789 0.0574 -0.1963
vn 0.8474 0.4767 -0.2336
vn 0.9806 0.1914 -0.0426
vn -0.1258 -0.9920 -0.0049
vn -0.1223 -0.7548 -0.6445
vn -0.3557 -0.9346 -0.0088
vn 0.9988 -0.0319 0.0364
vn -0.0000 -0.9999 -0.0131
vn -0.0263 -0.1431 0.9894
vn 0.0263 -0.1431 0.9894
vn 0.5027 -0.1237 0.8556
vn 0.4204 -0.1651 0.8922
vn 0.9611 -0.1187 0.2495
vn -0.0000 0.9999 0.0131
vn 0.9949 -0.0741 0.0678
vn 0.9920 -0.0969 0.0807
vn -0.0214 -0.1603 -0.9868
vn -0.0220 -0.1600 -0.9869
vn -0.0191 -0.1615 -0.9867
vn -0.0185 -0.1618 -0.9866
vn 0.0185 -0.1618 -0.9866
vn 0.0220 -0.1600 -0.9869
vn -0.9949 -0.0741 0.0678
vn -0.9920 -0.0970 0.0807
vn -0.9611 -0.1187 0.2495
vn -0.4204 -0.1651 0.8922
vn -0.5027 -0.1237 0.8556
vn -0.0284 -0.1234 -0.9920
vn 0.0284 -0.1234 -0.9920
vn 0.5024 -0.1067 -0.8581
vn 0.4200 -0.1474 -0.8955
vn 0.9609 -0.1137 -0.2525
vn 0.9877 -0.0582 -0.1449
vn 0.9699 -0.1101 -0.2171
vn -0.0220 -0.1796 0.9835
vn -0.0185 -0.1815 0.9832
vn 0.0191 -0.1812 0.9833
vn 0.0185 -0.1815 0.9832
vn 0.0214 -0.1799 0.9834
vn 0.0220 -0.1796 0.9835
vn -0.9877 -0.0582 -0.1449
vn -0.9699 -0.1101 -0.2171
vn -0.9609 -0.1137 -0.2525
vn -0.4200 -0.1474 -0.8955
vn -0.5023 -0.1067 -0.8581
vn -0.9913 0.1318 0.0017
vn 0.1292 0.9915 0.0130
vn 0.2278 -0.0430 0.9728
vn 0.2246 -0.0675 0.9721
vn -0.9962 -0.0865 0.0081
vn 0.8549 -0.5178 -0.0327
vn -0.2246 0.0675 -0.9721
vn -0.2278 0.0430 -0.9728
vn -0.2278 0.0430 -0.9727
vn -0.1292 -0.9915 -0.0130
vn 0.9913 -0.1318 -0.0017
vt 0.150000 0.046207
vt 0.113793 0.010000
vt 0.113793 0.046207
vt 0.150000 0.010000
vt 0.147921 0.009682
vt 0.114439 0.009524
vt 0.115539 0.045413
vt 0.118801 0.010000
vt 0.116297 0.046207
vt 0.116070 0.010000
vt 0.118801 0.046207
vt 0.118347 0.010000
vt 0.250000 0.010000
vt 0.237421 0.010000
vt 0.250000 0.085000
vt 0.150000 0.085000
vt 0.705458 0.412713
vt 0.410723 0.543647
vt 0.705458 0.544069
vt 0.842015 0.415941
vt 0.842015 0.544069
vt 0.839343 0.317339
vt 0.702786 0.329428
vt 0.731649 0.207636
vt 0.418001 0.406226
vt 0.421955 0.332231
vt 0.392702 0.213797
vt 0.903017 0.189166
vt 0.392526 0.012411
vt 0.667319 0.012043
vt 0.736765 0.011950
vt 0.792718 0.114225
vt 0.750529 0.079542
vt 0.821492 0.061153
vt 0.822552 0.066358
vt 0.808680 0.068564
vt 0.805105 0.051008
vt 0.526842 0.907110
vt 0.527898 0.880826
vt 0.507131 0.880778
vt 0.393922 0.881402
vt 0.389854 0.880982
vt 0.390769 0.907018
vt 0.580815 0.964265
vt 0.580815 0.909080
vt 0.799854 0.051008
vt 0.853364 0.050937
vt 0.849608 0.071047
vt 0.816442 0.081329
vt 0.803934 0.071047
vt 0.836600 0.081282
vt 0.834415 0.066358
vt 0.835391 0.061134
vt 0.851987 0.050945
vt 0.848695 0.068564
vt 0.831036 0.069016
vt 0.837299 0.077531
vt 0.904587 0.079542
vt 0.979966 0.094769
vt 0.860713 0.114065
vt 0.917259 0.011709
vt 0.921630 0.011703
vt 0.589111 0.887151
vt 0.583179 0.883177
vt 0.581872 0.882796
vt 0.941469 0.011676
vt 0.010761 0.582209
vt 0.017280 0.582209
vt 0.178040 0.665218
vt 0.008127 0.665302
vt 0.589167 0.936673
vt 0.589167 0.889081
vt 0.589166 0.984265
vt 0.583179 0.990168
vt 0.589111 0.986194
vt 0.178040 0.582209
vt 0.581871 0.990550
vt 0.390769 0.966326
vt 0.526841 0.966234
vt 0.507131 0.992567
vt 0.527897 0.992518
vt 0.835108 0.062804
vt 0.851301 0.057751
vt 0.851513 0.048725
vt 0.835169 0.060197
vt 0.852274 0.057364
vt 0.852510 0.047327
vt 0.799617 0.051665
vt 0.801198 0.062075
vt 0.318923 0.936672
vt 0.336005 0.963338
vt 0.389854 0.992362
vt 0.393922 0.991942
vt 0.336005 0.910005
vt 0.424958 0.993058
vt 0.288738 0.014222
vt 0.305327 0.213983
vt 0.274318 0.049211
vt 0.275135 0.014460
vt 0.833698 0.066537
vt 0.846419 0.070678
vt 0.255522 0.098980
vt 0.214916 0.127596
vt 0.830651 0.068684
vt 0.835872 0.078111
vt 0.835118 0.080003
vt 0.846846 0.071738
vt 0.805607 0.070752
vt 0.816927 0.079456
vt 0.823994 0.080713
vt 0.827762 0.068868
vt 0.825868 0.078749
vt 0.825927 0.068542
vt 0.819513 0.077619
vt 0.176400 0.130054
vt 0.008127 0.176318
vt 0.151933 0.125701
vt 0.822986 0.066281
vt 0.809332 0.069791
vt 0.112739 0.095564
vt 0.013815 0.068181
vt 0.097472 0.065522
vt 0.821841 0.064027
vt 0.805367 0.061988
vt 0.092000 0.029481
vt 0.821431 0.061324
vt 0.803946 0.052627
vt 0.046405 0.030146
vt 0.321456 0.986981
vt 0.335090 0.989375
vt 0.213956 0.585179
vt 0.389255 0.622861
vt 0.383894 0.584826
vt 0.213956 0.622825
vt 0.398664 0.730998
vt 0.213956 0.731044
vt 0.272423 0.347272
vt 0.251183 0.543466
vt 0.008127 0.543647
vt 0.010791 0.359504
vt 0.335090 0.883968
vt 0.321456 0.886362
vt 0.819639 0.077573
vt 0.825801 0.069029
vt 0.981067 0.176474
vt 0.988519 0.544069
vt 0.983739 0.378951
vt 0.012922 0.747006
vt 0.178040 0.746924
vt 0.424958 0.880286
vt 0.431489 0.779326
vt 0.473903 0.777663
vt 0.486490 0.595333
vt 0.432089 0.596304
vt 0.010000 0.820000
vt 0.192857 0.777553
vt 0.010000 0.777553
vt 0.474407 0.576248
vt 0.192857 0.820000
vt 0.206261 0.777553
vt 0.444129 0.582418
vt 0.209580 0.820000
vt 0.240076 0.820000
vt 0.217899 0.777553
vt 0.248396 0.777553
vt 0.444369 0.579126
vt 0.474659 0.573012
vt 0.474811 0.593813
vt 0.591635 0.563571
vt 0.346543 0.777553
vt 0.357324 0.820000
vt 0.572341 0.584825
vt 0.572281 0.567340
vt 0.360644 0.777553
vt 0.378118 0.777553
vt 0.378117 0.820000
vt 0.591788 0.584373
vt 0.432427 0.596306
vt 0.473906 0.777741
vt 0.010000 0.870000
vt 0.010000 0.827553
vt 0.192857 0.827553
vt 0.192857 0.870000
vt 0.206261 0.827553
vt 0.209580 0.870000
vt 0.240076 0.870000
vt 0.217899 0.827553
vt 0.248396 0.827553
vt 0.346543 0.827553
vt 0.357324 0.870000
vt 0.378118 0.827553
vt 0.360644 0.827553
vt 0.378117 0.870000
s 1
f 2/1/1 4/2/1 1/3/1
f 1/1/2 3/4/2 11/2/2 2/3/2
f 6/5/3 3/6/3 1/7/3 4/7/3
f 2/1/1 12/4/1 5/8/1 4/2/1
f 5/8/4 7/9/4 4/2/4
f 8/10/5 6/5/5 4/7/5 7/9/5
f 7/9/6 5/11/6 9/12/6 8/10/6
f 6/13/7 8/10/7 9/14/7
f 3/15/8 6/13/8 9/14/8 10/4/8
f 12/1/9 10/4/9 9/12/9 5/11/9
f 3/15/8 10/4/8 11/16/8
f 11/1/10 10/4/10 12/2/10 2/3/10
f 14/17/11 16/18/11 13/19/12
f 13/19/13 15/20/13 14/17/14
f 15/20/13 13/19/13 17/21/15
f 19/17/16 13/19/17 16/18/18
f 18/20/19 17/21/20 13/19/19
f 13/19/19 19/17/21 18/20/19
f 18/22/22 19/23/22 22/24/22
f 16/18/18 20/25/23 19/17/16
f 19/23/24 20/26/24 21/27/24
f 21/27/25 22/24/25 19/23/25
f 22/24/26 25/28/26 18/22/26
f 22/24/27 21/27/27 23/29/27
f 23/29/28 24/30/29 22/24/30
f 22/24/30 24/30/29 28/31/31
f 25/28/32 22/24/32 26/32/32
f 22/24/33 27/33/33 26/32/33
f 22/24/34 28/31/34 27/33/34
f 29/34/35 33/35/35 27/36/35 28/37/35
f 29/38/36 28/39/36 24/40/36 30/41/36
f 30/41/37 107/42/37 31/43/37 29/38/37
f 31/43/38 48/44/38 32/45/38 29/38/38
f 29/46/39 32/47/40 34/48/41
f 35/49/42 33/50/42 29/46/39 34/48/41
f 35/49/43 34/48/43 36/51/43
f 34/52/44 32/53/44 40/54/44 37/55/44
f 36/56/45 34/52/45 37/55/45 38/57/45
f 37/58/46 39/59/46 25/28/46
f 25/28/47 38/60/47 37/58/47
f 37/58/48 40/61/48 41/62/48 39/59/48
f 42/63/49 41/64/49 40/65/49 32/45/49
f 42/66/50 39/59/50 41/62/50
f 42/67/51 43/68/51 46/69/51 39/70/51
f 47/71/52 43/72/52 42/63/52 44/73/52
f 48/44/53 44/73/53 42/63/53 32/45/53
f 49/74/54 45/75/54 44/73/54
f 45/67/55 50/70/55 46/69/55 44/68/55
f 47/76/56 44/68/56 46/69/56
f 48/44/57 51/77/57 49/74/57 44/73/57
f 45/66/58 49/62/58 50/59/58
f 52/58/59 50/59/59 49/62/59 51/61/59
f 55/52/60 52/55/60 51/54/60 48/53/60
f 52/58/61 53/28/61 50/59/61
f 53/28/62 52/58/62 54/60/62
f 56/56/63 54/57/63 52/55/63 55/52/63
f 58/49/64 56/51/64 55/48/65 57/46/66
f 55/48/65 48/47/67 57/46/66
f 58/49/68 57/46/68 59/50/68
f 61/78/69 57/79/69 48/44/69 31/43/69
f 57/34/70 60/37/70 114/36/70 59/35/70
f 66/80/71 60/81/71 57/79/71 61/78/71
f 62/82/72 72/83/72 64/84/72 61/85/72
f 62/86/73 61/87/73 63/88/73 77/89/73
f 65/90/74 63/91/74 61/78/74
f 61/78/75 64/92/75 69/93/75 66/80/75
f 31/43/76 101/94/76 65/90/76 61/78/76
f 69/93/77 67/95/77 66/80/77
f 67/29/78 68/24/79 66/30/80
f 68/24/79 60/31/81 66/30/80
f 69/96/82 70/27/82 67/29/82
f 70/27/83 69/96/83 71/97/83
f 72/98/84 71/97/84 69/96/84
f 72/98/85 69/96/85 64/99/85
f 75/100/86 73/101/86 72/83/86 62/82/86
f 73/102/87 71/97/87 72/98/87
f 74/103/88 71/97/88 73/102/88
f 76/104/89 74/105/89 73/101/89 75/100/89
f 76/106/90 75/107/90 62/86/90 77/89/90
f 77/89/91 86/108/91 78/109/91 76/106/91
f 76/106/92 78/109/92 79/110/92
f 79/111/93 80/112/93 74/105/93 76/104/93
f 78/113/94 82/114/94 80/112/94 79/111/94
f 80/115/95 81/116/95 74/103/95
f 82/117/96 81/116/96 80/115/96
f 86/118/97 83/119/97 82/114/97 78/113/97
f 83/120/98 81/116/98 82/117/98
f 84/121/99 83/120/99 85/122/99
f 84/121/100 81/116/100 83/120/100
f 77/123/101 85/124/101 83/119/101 86/118/101
f 84/121/102 85/122/102 87/125/102
f 63/126/103 87/127/103 85/124/103 77/123/103
f 84/121/104 87/125/104 88/128/104
f 65/90/105 88/129/105 87/130/105 63/91/105
f 65/131/106 84/132/106 88/133/106
f 84/132/107 65/131/107 89/134/107
f 89/134/108 81/135/109 84/132/110
f 81/135/109 89/134/108 90/136/111
f 91/135/112 90/136/113 89/134/114
f 92/132/115 89/134/115 65/131/115
f 89/134/114 92/132/116 91/135/112
f 92/121/117 93/120/117 91/116/117
f 92/121/118 96/122/118 93/120/118
f 65/131/119 94/133/119 92/132/119
f 92/121/120 94/128/120 95/125/120
f 92/121/121 95/125/121 96/122/121
f 97/123/122 100/118/122 93/119/122 96/124/122
f 101/126/123 97/123/123 96/124/123 95/127/123
f 98/106/124 97/89/124 102/86/124 103/107/124
f 98/106/125 112/110/125 99/109/125 97/89/125
f 99/109/126 100/108/126 97/89/126
f 101/88/127 31/87/127 102/86/127 97/89/127
f 102/82/128 31/85/128 107/84/128 104/83/128
f 103/100/129 102/82/129 104/83/129 105/101/129
f 105/102/130 104/98/130 106/97/130
f 104/98/131 30/96/131 106/97/131
f 104/98/132 107/99/132 30/96/132
f 106/137/133 108/138/133 90/139/133
f 108/138/134 106/137/134 20/25/134
f 21/27/135 20/26/135 106/97/135
f 90/139/136 91/140/136 106/137/136
f 109/103/137 106/97/137 91/116/137
f 21/27/138 106/97/138 30/96/138
f 109/103/139 105/102/139 106/97/139
f 110/115/140 109/103/140 91/116/140
f 112/111/141 98/104/141 109/105/141 110/112/141
f 98/104/142 103/100/142 105/101/142 109/105/142
f 111/117/143 110/115/143 91/116/143
f 99/113/144 112/111/144 110/112/144 111/114/144
f 100/118/145 99/113/145 111/114/145 93/119/145
f 93/120/146 111/117/146 91/116/146
f 71/137/147 90/139/147 108/138/147
f 108/138/148 113/25/148 71/137/148
f 113/25/149 108/138/149 16/18/149
f 20/25/150 16/18/150 108/138/150
f 16/18/11 14/17/11 113/25/151
f 14/23/152 70/27/152 113/26/152
f 70/27/153 71/97/153 113/26/153
f 95/141/154 94/142/154 65/90/154 101/94/154
f 90/139/155 71/137/155 81/140/155
f 74/103/156 81/116/156 71/97/156
f 70/27/157 14/23/157 68/24/157
f 68/24/158 67/29/158 70/27/158
f 68/24/159 15/22/159 53/28/159
f 15/22/160 68/24/160 14/23/160
f 53/28/161 115/32/161 68/24/161
f 68/24/162 114/33/162 60/31/162
f 68/24/163 115/32/163 114/33/163
f 59/35/164 114/36/164 115/143/164 58/144/164
f 53/28/165 54/60/165 115/32/165
f 58/144/166 115/143/166 54/57/166 56/56/166
f 50/59/167 53/28/167 116/145/167
f 116/145/168 53/28/168 15/22/168
f 117/146/169 116/147/169 15/20/169 17/21/169
f 46/69/170 50/70/170 116/148/170 117/149/170
f 46/69/171 117/149/171 118/148/171 39/70/171
f 117/146/172 17/21/172 18/20/172 118/147/172
f 39/59/173 118/145/173 25/28/173
f 118/145/174 18/22/174 25/28/174
f 47/76/56 46/69/56 43/68/56
f 25/28/175 26/32/175 38/60/175
f 35/144/176 36/56/176 38/57/176 26/143/176
f 33/35/177 35/144/177 26/143/177 27/36/177
f 30/41/178 24/40/178 23/150/178
f 30/96/179 23/29/179 21/27/179
f 119/151/180 120/152/180 124/153/180
f 119/151/180 121/153/180 120/152/180
f 121/153/180 119/151/180 122/154/180
f 123/155/181 122/156/181 119/157/181
f 123/155/182 119/157/182 125/156/182
f 124/153/180 125/154/180 119/151/180
f 125/154/180 124/153/180 127/158/180
f 125/156/182 126/159/182 123/155/182
f 126/159/183 125/156/183 128/160/183
f 127/158/180 128/161/180 125/154/180
f 128/160/184 129/162/184 126/159/184
f 130/163/185 129/162/185 128/164/185
f 128/164/185 127/165/185 130/163/185
f 129/166/186 130/167/186 131/168/186
f 131/168/186 130/167/186 132/169/186
f 133/170/187 132/171/187 130/163/187
f 130/163/188 127/165/188 133/170/188
f 134/172/180 133/173/180 127/158/180
f 132/171/189 133/174/190 134/175/191
f 127/158/180 124/153/180 134/172/180
f 134/175/191 135/176/192 132/171/189
f 132/169/186 135/177/186 131/168/186
f 131/168/186 126/178/186 129/166/186
f 126/178/186 131/168/186 136/179/186
f 136/179/186 123/151/186 126/178/186
f 136/179/186 137/178/186 123/151/186
f 137/178/186 136/179/186 138/168/186
f 138/168/186 139/166/186 137/178/186
f 139/166/186 138/168/186 140/167/186
f 138/168/186 141/169/186 140/167/186
f 141/169/186 138/168/186 142/177/186
f 143/175/193 141/171/193 142/176/193
f 143/172/180 144/158/180 145/173/180
f 144/158/180 143/172/180 121/153/180
f 141/171/194 143/175/194 145/174/194
f 145/170/195 140/163/195 141/171/195
f 140/163/196 145/170/196 144/165/196
f 144/158/180 122/154/180 146/161/180
f 122/154/180 144/158/180 121/153/180
f 146/164/197 140/163/197 144/165/197
f 146/160/198 137/159/198 139/162/198
f 137/159/199 146/160/199 122/156/199
f 140/163/197 146/164/197 139/162/197
f 122/156/181 123/155/181 137/159/181
f 148/153/180 150/154/180 147/151/180
f 147/151/180 149/152/180 148/153/180
f 147/151/180 152/153/180 149/152/180
f 151/180/200 147/181/200 150/182/200
f 151/180/201 153/182/201 147/181/201
f 152/153/180 147/151/180 153/154/180
f 153/154/180 155/158/180 152/153/180
f 153/182/201 151/180/201 154/183/201
f 154/183/202 156/184/202 153/182/202
f 155/158/180 153/154/180 156/161/180
f 156/184/203 154/183/203 157/185/203
f 158/186/204 156/187/204 157/185/204
f 156/187/204 158/186/204 155/188/204
f 157/166/186 159/168/186 158/167/186
f 159/168/186 160/169/186 158/167/186
f 161/189/205 158/186/205 160/190/205
f 158/186/206 161/189/206 155/188/206
f 162/172/180 155/158/180 161/173/180
f 160/190/207 162/191/207 161/192/207
f 155/158/180 162/172/180 152/153/180
f 162/191/208 160/190/208 163/193/208
f 160/169/186 159/168/186 163/177/186
f 159/168/186 157/166/186 154/178/186
f 154/178/186 164/179/186 159/168/186
f 165/178/186 166/168/186 164/179/186
f 164/179/186 151/151/186 165/178/186
f 164/179/186 154/178/186 151/151/186
f 166/168/186 165/178/186 167/166/186
f 167/166/186 169/167/186 166/168/186
f 168/169/186 170/177/186 166/168/186
f 166/168/186 169/167/186 168/169/186
f 171/191/209 170/193/210 168/190/211
f 171/172/180 173/173/180 172/158/180
f 172/158/180 148/153/180 171/172/180
f 168/190/211 173/192/212 171/191/209
f 173/189/213 168/190/213 169/186/213
f 169/186/214 172/188/214 173/189/214
f 172/158/180 174/161/180 150/154/180
f 150/154/180 148/153/180 172/158/180
f 174/187/215 172/188/215 169/186/215
f 174/184/216 167/185/216 165/183/216
f 165/183/217 150/182/217 174/184/217
f 169/186/215 167/185/215 174/187/215
f 150/182/200 165/183/200 151/180/200
f 180/5/218 178/7/218 175/7/218 176/6/218
f 175/1/219 177/3/219 185/2/219 176/4/219
f 177/1/220 175/3/220 178/2/220 179/8/220
f 179/8/221 178/2/221 181/9/221
f 182/10/222 181/9/222 178/7/222 180/5/222
f 181/9/223 182/10/223 183/12/223 179/11/223
f 180/13/224 183/14/224 182/10/224
f 176/15/225 183/14/225 180/13/226
f 176/15/225 185/16/225 184/4/225 183/14/225
f 186/1/227 179/11/227 183/12/227 184/4/227
f 185/1/228 177/3/228 186/2/228 184/4/228
f 177/1/220 179/8/220 186/4/220
