# Blender 5.1.2
# www.blender.org
o front_l
v 0.132829 0.330264 -0.324550
v -0.132829 0.330264 -0.324550
v 0.132829 0.004040 -0.463024
v 0.132829 0.463023 0.004041
v 0.132829 0.324549 0.330264
v -0.132830 0.324549 0.330264
v 0.132829 -0.004041 0.463024
v 0.132829 -0.324551 -0.330264
v -0.132829 -0.324551 -0.330264
v 0.132829 -0.463025 -0.004041
v 0.132829 -0.330265 0.324550
v -0.132829 -0.330265 0.324550
v -0.132829 -0.004041 0.463024
v -0.132829 -0.463024 -0.004041
v -0.132829 0.004040 -0.463023
v -0.132829 0.463023 0.004041
vn -0.0000 0.9272 -0.3746
vn -0.0000 0.3907 -0.9205
vn 1.0000 -0.0000 -0.0000
vn -0.0000 0.3746 0.9272
vn -0.0000 0.9205 0.3907
vn -0.0000 -0.3746 -0.9272
vn -0.0000 -0.9205 -0.3907
vn -0.0000 -0.9272 0.3746
vn -0.0000 -0.3907 0.9205
vn -1.0000 -0.0000 -0.0000
vt 0.970000 0.650000
vt 0.932570 0.650000
vt 0.932570 0.600000
vt 0.970000 0.600000
vt 0.895141 0.650000
vt 0.895141 0.600000
vt 0.926148 0.935867
vt 0.820281 0.979719
vt 0.714415 0.935867
vt 0.714415 0.724133
vt 0.670563 0.830000
vt 0.745422 0.650000
vt 0.707993 0.650000
vt 0.707993 0.600000
vt 0.745422 0.600000
vt 0.670563 0.650000
vt 0.670563 0.600000
vt 0.820281 0.680281
vt 0.926148 0.724133
vt 0.857711 0.650000
vt 0.857711 0.600000
vt 0.820281 0.650000
vt 0.820281 0.600000
vt 0.970000 0.830000
vt 0.782852 0.650000
vt 0.782852 0.600000
s 1
f 4/1/1 1/2/1 2/3/1 16/4/1
f 1/2/2 3/5/2 15/6/2 2/3/2
f 8/7/3 3/8/3 1/9/3 5/10/3
f 5/10/3 1/9/3 4/11/3
f 7/12/4 5/13/4 6/14/4 13/15/4
f 5/13/5 4/16/5 16/17/5 6/14/5
f 5/10/3 7/18/3 11/19/3 8/7/3
f 3/5/6 8/20/6 9/21/6 15/6/6
f 8/20/7 10/22/7 14/23/7 9/21/7
f 11/19/3 10/24/3 8/7/3
f 10/22/8 11/25/8 12/26/8 14/23/8
f 11/25/9 7/12/9 13/15/9 12/26/9
f 13/18/10 14/24/10 12/19/10
f 15/8/10 9/7/10 14/24/10 13/18/10
f 13/18/10 6/10/10 16/11/10 15/8/10
f 16/11/10 2/9/10 15/8/10
