# Blender 5.1.2
# www.blender.org
o front_r
v -1.110216 0.747692 2.083188
v -0.844558 0.747692 2.083188
v -0.844558 0.886165 1.756965
v -1.110216 0.886166 1.756965
v -1.110217 0.419101 2.215948
v -0.844558 0.419101 2.215948
v -1.110216 0.092878 2.077474
v -0.844558 0.092878 2.077474
v -1.110216 -0.039882 1.748883
v -0.844558 -0.039882 1.748883
v -1.110216 0.098592 1.422660
v -0.844558 0.098592 1.422660
v -1.110216 0.427183 1.289900
v -0.844558 0.427183 1.289900
v -1.110216 0.753406 1.428374
v -0.844559 0.753406 1.428374
vn -0.0000 0.9205 0.3907
vn -0.0000 0.3746 0.9272
vn -0.0000 -0.3907 0.9205
vn -0.0000 -0.9272 0.3746
vn -0.0000 -0.9205 -0.3907
vn -0.0000 -0.3746 -0.9272
vn -0.0000 0.3907 -0.9205
vn -0.0000 0.9272 -0.3746
vn 1.0000 -0.0000 -0.0000
vn -1.0000 -0.0000 -0.0000
vt 0.932570 0.650000
vt 0.932570 0.600000
vt 0.895141 0.600000
vt 0.895141 0.650000
vt 0.970000 0.650000
vt 0.970000 0.600000
vt 0.707993 0.650000
vt 0.707993 0.600000
vt 0.670563 0.600000
vt 0.670563 0.650000
vt 0.745422 0.650000
vt 0.745422 0.600000
vt 0.782852 0.650000
vt 0.782852 0.600000
vt 0.820281 0.650000
vt 0.820281 0.600000
vt 0.857711 0.650000
vt 0.857711 0.600000
vt 0.820281 0.680281
vt 0.926148 0.724133
vt 0.970000 0.830000
vt 0.820281 0.979719
vt 0.926148 0.935867
vt 0.714415 0.935867
vt 0.670563 0.830000
vt 0.714415 0.724133
s 1
f 1/1/1 2/2/1 3/3/1 4/4/1
f 5/5/2 6/6/2 2/2/2 1/1/2
f 7/7/3 8/8/3 6/9/3 5/10/3
f 9/11/4 10/12/4 8/8/4 7/7/4
f 11/13/5 12/14/5 10/12/5 9/11/5
f 13/15/6 14/16/6 12/14/6 11/13/6
f 15/17/7 16/18/7 14/16/7 13/15/7
f 4/4/8 3/3/8 16/18/8 15/17/8
f 10/19/9 12/20/9 14/21/9 3/22/9
f 14/21/9 16/23/9 3/22/9
f 3/22/9 2/24/9 6/25/9 10/19/9
f 10/19/9 6/25/9 8/26/9
f 7/26/10 5/25/10 1/24/10 15/23/10
f 1/24/10 4/22/10 15/23/10
f 15/23/10 13/21/10 11/20/10 7/26/10
f 7/26/10 11/20/10 9/19/10
o back_r
v -1.090021 0.427183 -1.372663
v -1.090021 0.753406 -1.511137
v -0.824363 0.427182 -1.372663
v -1.090021 0.098592 -1.505422
v -1.090021 0.886165 -1.839727
v -1.090021 0.747692 -2.165951
v -0.824363 0.886165 -1.839727
v -1.090021 -0.039882 -1.831646
v -0.824363 -0.039882 -1.831645
v -1.090021 0.092877 -2.160236
v -1.090021 0.419101 -2.298710
v -0.824363 0.419101 -2.298710
v -0.824363 0.092877 -2.160236
v -0.824363 0.747692 -2.165951
v -0.824363 0.753406 -1.511136
v -0.824363 0.098592 -1.505422
vn -1.0000 -0.0000 -0.0000
vn -0.0000 0.3907 0.9205
vn -0.0000 -0.3746 0.9272
vn -0.0000 0.9205 -0.3907
vn -0.0000 0.9272 0.3746
vn -0.0000 -0.9205 0.3907
vn -0.0000 -0.9272 -0.3746
vn -0.0000 -0.3907 -0.9205
vn -0.0000 0.3746 -0.9272
vn 1.0000 -0.0000 -0.0000
vt 0.714415 0.935867
vt 0.820281 0.979719
vt 0.926148 0.935867
vt 0.932570 0.650000
vt 0.932570 0.600000
vt 0.895141 0.600000
vt 0.895141 0.650000
vt 0.970000 0.650000
vt 0.970000 0.600000
vt 0.714415 0.724133
vt 0.670563 0.830000
vt 0.970000 0.830000
vt 0.926148 0.724133
vt 0.857711 0.650000
vt 0.857711 0.600000
vt 0.820281 0.600000
vt 0.820281 0.650000
vt 0.707993 0.650000
vt 0.707993 0.600000
vt 0.670563 0.600000
vt 0.670563 0.650000
vt 0.745422 0.650000
vt 0.745422 0.600000
vt 0.820281 0.680281
vt 0.782852 0.650000
vt 0.782852 0.600000
s 1
f 17/27/11 18/28/11 21/29/11
f 17/30/12 19/31/12 31/32/12 18/33/12
f 20/34/13 32/35/13 19/31/13 17/30/13
f 24/36/11 20/37/11 17/27/11 21/29/11
f 21/29/11 22/38/11 27/39/11 24/36/11
f 21/40/14 23/41/14 30/42/14 22/43/14
f 18/33/15 31/32/15 23/41/15 21/40/15
f 24/44/16 25/45/16 32/46/16 20/47/16
f 26/48/17 29/49/17 25/45/17 24/44/17
f 24/36/11 27/39/11 26/50/11
f 27/51/18 28/52/18 29/49/18 26/48/18
f 22/43/19 30/42/19 28/52/19 27/51/19
f 29/50/20 28/39/20 30/38/20 31/28/20
f 30/38/20 23/29/20 31/28/20
f 31/28/20 19/27/20 32/37/20 29/50/20
f 29/50/20 32/37/20 25/36/20
o body
v -1.107380 1.572023 0.453590
v -1.324033 1.544463 0.401629
v -1.107380 1.572977 0.380706
v -1.086276 1.413339 0.451513
v -1.116242 1.409527 0.444326
v -1.086276 1.414293 0.378629
v -1.090806 1.368554 0.447358
v -1.089449 1.369681 0.374800
v -1.113529 1.410827 0.372093
v -1.302930 1.386733 0.326668
v -1.324033 1.545417 0.328745
v -1.302930 1.385779 0.399552
v 0.000000 2.103997 -1.121122
v -0.732972 2.087884 -1.121123
v -0.714963 2.030407 -1.883935
v 0.000000 2.098640 0.482974
v 0.000001 2.046520 -1.883935
v 0.714964 2.030407 -1.883935
v 0.732972 2.087884 -1.121122
v 0.769172 2.082528 0.442242
v 1.098141 1.436175 0.600570
v 1.049311 1.426553 -1.291062
v 1.062795 0.312510 0.586841
v 1.053535 0.330530 -0.946414
v 1.005055 1.336017 -2.248573
v 1.114760 0.909822 -1.638625
v 1.100998 0.713225 -1.405762
v 1.052626 0.335085 -1.333898
v 0.557204 0.397813 -1.313368
v 1.041767 0.315037 1.166065
v 0.558934 0.408680 1.226129
v 0.520088 0.409650 -2.320464
v 0.605575 0.775954 -1.385231
v 0.570015 0.787206 -2.244810
v 0.619338 0.972551 -1.618094
v 0.602061 0.976626 -1.997488
v 1.065438 0.724478 -2.265340
v 1.097483 0.913897 -2.018018
v 0.948122 0.814943 -2.684811
v 1.015511 0.346921 -2.340994
v 1.008326 0.347208 -2.365387
v 0.933422 0.348509 -2.476084
v 0.897048 0.348521 -2.477114
v -0.897047 0.348521 -2.477114
v -0.933421 0.348509 -2.476084
v 0.000001 0.814826 -2.711489
v 0.000001 0.348521 -2.477114
v -0.520087 0.409650 -2.320464
v -1.008325 0.347208 -2.365387
v -0.948121 0.814943 -2.684811
v -1.015510 0.346921 -2.340995
v -1.065437 0.724478 -2.265341
v -1.005054 1.336017 -2.248573
v -1.097482 0.913897 -2.018018
v -0.570014 0.787206 -2.244811
v -0.602060 0.976626 -1.997488
v -0.557203 0.397813 -1.313368
v -0.619337 0.972551 -1.618095
v -0.605574 0.775954 -1.385232
v -1.052626 0.335085 -1.333898
v -0.558934 0.408680 1.226128
v -0.586654 0.602520 1.233227
v -0.502634 0.479114 2.249043
v -1.049691 0.315369 1.241982
v 0.000000 0.387536 2.566629
v -1.053534 0.330530 -0.946414
v -1.062795 0.312510 0.586841
v -1.049310 1.426553 -1.291062
v -1.041767 0.315037 1.166065
v -1.098140 1.436175 0.600570
v -1.098140 1.428232 1.096903
v -1.077411 0.509209 1.249081
v -1.112608 0.785525 1.357588
v -1.131742 0.942225 1.586245
v -0.621852 0.878836 1.341734
v -0.640986 1.035536 1.570392
v -0.563990 0.680611 2.221144
v -0.633534 1.020362 1.921670
v -0.637044 1.046435 1.785471
v -1.127800 0.953124 1.801325
v -1.030681 1.198968 2.743597
v -1.124290 0.927051 1.937523
v -1.107288 0.756036 2.154011
v -0.978180 0.596025 2.703964
v -1.054746 0.587300 2.236998
v -0.616532 0.849347 2.138157
v -0.993390 0.385803 2.264896
v -0.948263 0.386186 2.519348
v 0.000000 0.595555 2.724329
v 0.000000 1.199030 2.758511
v 1.030681 1.198968 2.743598
v 0.978179 0.596025 2.703964
v 1.107288 0.756036 2.154011
v 0.948263 0.386186 2.519348
v 0.993390 0.385803 2.264896
v 1.054746 0.587300 2.236998
v 0.563990 0.680611 2.221145
v 0.640985 1.035536 1.570392
v 0.633534 1.020362 1.921670
v 0.616531 0.849347 2.138157
v 0.502634 0.479114 2.249043
v 0.586654 0.602520 1.233227
v 0.621852 0.878836 1.341735
v 1.077411 0.509209 1.249081
v 1.112608 0.785525 1.357588
v 1.098140 1.428232 1.096903
v 1.049691 0.315369 1.241982
v 0.000000 1.428232 1.215787
v 1.131742 0.942225 1.586245
v 1.127800 0.953124 1.801325
v 1.124290 0.927051 1.937523
v 0.637043 1.046435 1.785472
v -0.769172 2.082528 0.442242
v -1.100997 0.713225 -1.405762
v -1.114759 0.909822 -1.638625
v -0.921364 1.270900 -2.684985
v 0.000001 1.270788 -2.711660
v 0.921366 1.270900 -2.684984
v 0.000000 0.586466 2.803296
v 0.000000 0.588298 2.663364
v -0.958357 0.589149 2.598348
v -0.964484 0.586801 2.777677
v 0.000000 0.790073 2.832737
v 0.958357 0.589149 2.598348
v 0.964483 0.586801 2.777677
v 0.964483 0.790409 2.807119
v 1.061442 0.588660 2.635686
v 1.035181 0.587344 2.736221
v 1.052685 0.790951 2.765662
v 1.078946 0.792267 2.665127
v 0.969276 0.792240 2.667187
v 1.105666 0.797327 2.278607
v 1.088163 0.592896 2.312133
v 0.995996 0.592869 2.314192
v 0.995996 0.797300 2.280667
v 0.000000 0.791905 2.692805
v -0.964483 0.790409 2.807118
v -0.969276 0.792240 2.667186
v -1.052686 0.790951 2.765662
v -1.078947 0.792267 2.665127
v -1.105667 0.797327 2.278607
v -0.995997 0.797300 2.280666
v -0.995997 0.592869 2.314192
v -1.061442 0.588660 2.635686
v -1.088163 0.592896 2.312133
v -1.035181 0.587344 2.736221
v 0.000001 0.554284 -2.753247
v -0.886045 0.551601 -2.548299
v 0.000001 0.552300 -2.601692
v -0.892171 0.553949 -2.727628
v 0.000001 0.758564 -2.778658
v 0.886046 0.551601 -2.548299
v 0.892173 0.553949 -2.727628
v 0.892172 0.758228 -2.753038
v 0.989131 0.552090 -2.585636
v 0.962870 0.553406 -2.686171
v 0.980375 0.757685 -2.711582
v 1.006636 0.756369 -2.611047
v 0.896965 0.756396 -2.613107
v 1.033356 0.753972 -2.427912
v 1.015852 0.550517 -2.465468
v 0.923686 0.550544 -2.467527
v 0.923686 0.753999 -2.429972
v 0.000001 0.756732 -2.638726
v -0.892171 0.758228 -2.753039
v -0.896964 0.756396 -2.613107
v -0.980374 0.757685 -2.711583
v -1.033354 0.753972 -2.427913
v -1.006634 0.756369 -2.611048
v -0.923685 0.753999 -2.429972
v -0.923685 0.550544 -2.467528
v -0.989130 0.552090 -2.585636
v -1.015851 0.550517 -2.465469
v -0.962869 0.553406 -2.686171
v 1.107381 1.572023 0.453590
v 1.107381 1.572977 0.380707
v 1.324034 1.544463 0.401629
v 1.086277 1.413339 0.451513
v 1.116242 1.409527 0.444326
v 1.086277 1.414293 0.378629
v 1.090806 1.368554 0.447358
v 1.089449 1.369681 0.374800
v 1.113529 1.410827 0.372093
v 1.302930 1.386733 0.326668
v 1.324034 1.545417 0.328745
v 1.302930 1.385779 0.399552
vn -0.2278 -0.0430 0.9728
vn -0.1292 0.9915 0.0130
vn 0.9913 0.1318 0.0017
vn -0.2246 -0.0675 0.9721
vn 0.9962 -0.0866 0.0081
vn -0.8549 -0.5178 -0.0327
vn 0.2246 0.0675 -0.9721
vn 0.2278 0.0430 -0.9728
vn 0.1292 -0.9915 -0.0130
vn -0.9913 -0.1318 -0.0017
vn -0.0217 0.9998 0.0032
vn -0.0220 0.9998 0.0033
vn -0.0222 0.9969 -0.0754
vn -0.0219 0.9969 -0.0756
vn -0.0225 0.9969 -0.0751
vn 0.0217 0.9998 0.0032
vn 0.0220 0.9998 0.0033
vn 0.0213 0.9998 0.0031
vn 0.0222 0.9969 -0.0754
vn 0.0225 0.9969 -0.0751
vn 0.0219 0.9969 -0.0756
vn 0.8952 0.4422 -0.0545
vn 0.0211 0.9998 0.0029
vn 0.8929 0.4498 -0.0191
vn 0.8993 0.4367 -0.0254
vn 0.9037 0.4203 -0.0815
vn 0.9992 -0.0311 -0.0256
vn 1.0000 0.0020 -0.0060
vn 1.0000 0.0030 -0.0028
vn 1.0000 0.0030 -0.0029
vn 1.0000 0.0031 -0.0023
vn 0.9843 0.1658 -0.0612
vn 0.9929 0.0550 0.1051
vn 0.8682 -0.0168 0.4959
vn -0.0633 -0.1785 -0.9819
vn -0.1281 -0.9917 -0.0085
vn -0.1898 -0.9818 0.0049
vn -0.0108 -0.9999 -0.0002
vn 0.9915 -0.1246 -0.0388
vn 0.9916 -0.1235 -0.0380
vn 0.9908 -0.1288 -0.0420
vn 0.9906 -0.1297 -0.0427
vn 0.9931 -0.1075 -0.0464
vn 0.0155 -0.1984 0.9800
vn -0.0743 -0.7870 0.6124
vn 0.9635 0.1019 -0.2475
vn 0.9737 0.1017 -0.2041
vn 0.9567 -0.0699 -0.2826
vn -0.1210 -0.9907 0.0619
vn 0.7965 -0.2677 -0.5421
vn 0.0257 -0.4090 -0.9122
vn -0.0000 -0.9999 -0.0117
vn -0.0001 -0.9312 0.3646
vn -0.0000 -0.9999 -0.0118
vn -0.0257 -0.4090 -0.9122
vn -0.0000 -0.4491 -0.8935
vn 0.1181 -0.9888 0.0911
vn -0.7965 -0.2677 -0.5421
vn -0.9567 -0.0699 -0.2826
vn -0.0155 -0.1984 0.9800
vn -0.9635 0.1019 -0.2475
vn -0.9737 0.1017 -0.2041
vn 0.0743 -0.7870 0.6124
vn -0.9913 -0.1252 -0.0410
vn -0.9913 -0.1251 -0.0407
vn -0.9916 -0.1238 -0.0385
vn -0.9916 -0.1235 -0.0380
vn -0.9888 -0.1374 -0.0576
vn 0.0101 -0.9999 -0.0002
vn 0.0633 -0.1785 -0.9819
vn 0.1360 -0.9907 0.0023
vn 0.0382 -0.0311 0.9988
vn -0.9747 -0.2168 0.0543
vn -0.2270 -0.9707 0.0793
vn 0.1912 -0.9815 -0.0071
vn 0.0581 -0.9983 0.0085
vn 0.3557 -0.9346 -0.0088
vn -1.0000 0.0020 -0.0060
vn -1.0000 0.0030 -0.0029
vn -1.0000 0.0030 -0.0027
vn -1.0000 0.0031 -0.0023
vn -0.9988 -0.0319 0.0364
vn -0.9987 -0.0506 -0.0008
vn -0.9630 -0.0650 -0.2614
vn -0.9853 -0.1372 -0.1022
vn 0.0972 -0.3530 0.9305
vn -0.9815 -0.0527 -0.1843
vn -0.9970 -0.0089 -0.0773
vn 0.1715 -0.8059 0.5666
vn -0.9884 -0.1486 0.0315
vn -0.9731 -0.2282 -0.0329
vn -0.9993 -0.0307 0.0199
vn 0.1880 -0.9811 0.0463
vn 0.1775 -0.9657 -0.1894
vn -0.9275 0.3739 -0.0019
vn -0.9841 0.1682 0.0576
vn 0.1270 -0.7735 -0.6210
vn -0.9940 0.0331 0.1043
vn -0.9620 -0.2200 0.1618
vn -0.9748 -0.0980 0.2003
vn 0.0521 -0.4276 -0.9025
vn -0.9502 -0.2671 0.1608
vn -0.0056 -0.1388 -0.9903
vn -0.9445 -0.2824 0.1679
vn 0.0688 -0.9728 -0.2210
vn -0.0363 -0.6630 0.7477
vn -0.0169 -0.6040 0.7968
vn -0.0199 -0.0659 0.9976
vn -0.0152 -0.0579 0.9982
vn -0.0208 -0.0674 0.9975
vn -0.0144 -0.0565 0.9983
vn 0.0152 -0.0579 0.9982
vn 0.0144 -0.0565 0.9983
vn 0.0199 -0.0659 0.9976
vn 0.0169 -0.6040 0.7968
vn 0.0208 -0.0674 0.9975
vn 0.9748 -0.0981 0.2003
vn 0.9620 -0.2200 0.1618
vn 0.0363 -0.6630 0.7477
vn 0.9445 -0.2824 0.1679
vn 0.9502 -0.2671 0.1608
vn -0.0522 -0.4276 -0.9025
vn 0.0056 -0.1388 -0.9903
vn 0.9884 -0.1486 0.0315
vn 0.9834 -0.1808 0.0130
vn 0.8860 -0.3952 -0.2426
vn 0.9747 -0.2168 0.0543
vn -0.0382 -0.0311 0.9988
vn -0.0972 -0.3530 0.9305
vn 0.9815 -0.0527 -0.1843
vn 0.9630 -0.0650 -0.2614
vn 0.9853 -0.1372 -0.1022
vn 0.0159 0.9890 0.1469
vn 0.0743 0.7238 0.6860
vn 0.8905 0.4550 0.0073
vn 0.0021 0.9904 0.1380
vn 0.9902 0.1271 0.0583
vn 0.9987 -0.0506 -0.0008
vn 0.9970 -0.0089 -0.0773
vn 0.9275 0.3739 -0.0019
vn -0.1880 -0.9811 0.0463
vn -0.1715 -0.8059 0.5666
vn 0.9841 0.1682 0.0576
vn -0.1775 -0.9657 -0.1894
vn -0.1270 -0.7735 -0.6210
vn 0.9940 0.0331 0.1043
vn -0.0159 0.9890 0.1469
vn -0.0743 0.7238 0.6860
vn -0.0511 0.7369 0.6741
vn 0.0511 0.7369 0.6741
vn -0.0211 0.9998 0.0029
vn -0.8929 0.4498 -0.0191
vn -0.8905 0.4550 0.0073
vn -0.0688 -0.9728 -0.2210
vn -0.0021 0.9904 0.1380
vn -0.9902 0.1271 0.0583
vn -0.8993 0.4367 -0.0254
vn -0.9992 -0.0311 -0.0256
vn -0.9037 0.4203 -0.0815
vn -0.8953 0.4422 -0.0545
vn -0.9843 0.1658 -0.0612
vn -0.8682 -0.0168 0.4959
vn -0.9929 0.0550 0.1051
vn 0.1223 -0.7548 -0.6445
vn -0.9806 0.1914 -0.0426
vn 0.1258 -0.9920 -0.0049
vn -0.9789 0.0574 -0.1963
vn -0.8474 0.4767 -0.2336
vn -0.0183 0.7287 -0.6846
vn -0.0285 0.0005 -0.9996
vn 0.0285 0.0005 -0.9996
vn 0.0183 0.7287 -0.6846
vn 0.9789 0.0574 -0.1963
vn 0.8474 0.4767 -0.2336
vn 0.9806 0.1914 -0.0426
vn -0.1258 -0.9920 -0.0049
vn -0.1223 -0.7548 -0.6445
vn -0.3557 -0.9346 -0.0088
vn 0.9988 -0.0319 0.0364
vn -0.0000 -0.9999 -0.0131
vn -0.0263 -0.1431 0.9894
vn 0.0263 -0.1431 0.9894
vn 0.5027 -0.1237 0.8556
vn 0.4204 -0.1651 0.8922
vn 0.9611 -0.1187 0.2495
vn -0.0000 0.9999 0.0131
vn 0.9949 -0.0741 0.0678
vn 0.9920 -0.0969 0.0807
vn -0.0214 -0.1603 -0.9868
vn -0.0220 -0.1600 -0.9869
vn -0.0191 -0.1615 -0.9867
vn -0.0185 -0.1618 -0.9866
vn 0.0185 -0.1618 -0.9866
vn 0.0220 -0.1600 -0.9869
vn -0.9949 -0.0741 0.0678
vn -0.9920 -0.0970 0.0807
vn -0.9611 -0.1187 0.2495
vn -0.4204 -0.1651 0.8922
vn -0.5027 -0.1237 0.8556
vn -0.0284 -0.1234 -0.9920
vn 0.0284 -0.1234 -0.9920
vn 0.5023 -0.1067 -0.8581
vn 0.4200 -0.1474 -0.8955
vn 0.9609 -0.1137 -0.2525
vn 0.9877 -0.0582 -0.1449
vn 0.9699 -0.1101 -0.2171
vn -0.0220 -0.1796 0.9835
vn -0.0185 -0.1815 0.9832
vn 0.0191 -0.1812 0.9833
vn 0.0185 -0.1815 0.9832
vn 0.0214 -0.1799 0.9834
vn 0.0220 -0.1796 0.9835
vn -0.9877 -0.0582 -0.1449
vn -0.9699 -0.1101 -0.2171
vn -0.9609 -0.1137 -0.2525
vn -0.4200 -0.1474 -0.8955
vn -0.5023 -0.1067 -0.8581
vn -0.9913 0.1318 0.0017
vn 0.1292 0.9915 0.0130
vn 0.2278 -0.0430 0.9728
vn 0.2246 -0.0675 0.9721
vn -0.9962 -0.0865 0.0081
vn 0.8549 -0.5178 -0.0327
vn -0.2246 0.0675 -0.9721
vn -0.2278 0.0430 -0.9728
vn -0.2278 0.0430 -0.9727
vn -0.1292 -0.9915 -0.0130
vn 0.9913 -0.1318 -0.0017
vt 0.150000 0.046207
vt 0.113793 0.010000
vt 0.113793 0.046207
vt 0.150000 0.010000
vt 0.147921 0.009682
vt 0.114439 0.009524
vt 0.115539 0.045413
vt 0.118801 0.010000
vt 0.116297 0.046207
vt 0.116070 0.010000
vt 0.118801 0.046207
vt 0.118347 0.010000
vt 0.250000 0.010000
vt 0.237421 0.010000
vt 0.250000 0.085000
vt 0.150000 0.085000
vt 0.705458 0.412713
vt 0.410723 0.543647
vt 0.705458 0.544069
vt 0.842015 0.415941
vt 0.842015 0.544069
vt 0.839343 0.317339
vt 0.702786 0.329428
vt 0.731649 0.207636
vt 0.418001 0.406226
vt 0.421955 0.332231
vt 0.392702 0.213797
vt 0.903017 0.189166
vt 0.392526 0.012411
vt 0.667319 0.012043
vt 0.736765 0.011950
vt 0.792718 0.114225
vt 0.750529 0.079542
vt 0.821492 0.061153
vt 0.822552 0.066358
vt 0.808680 0.068564
vt 0.805105 0.051008
vt 0.526842 0.907110
vt 0.527898 0.880826
vt 0.507131 0.880778
vt 0.393922 0.881402
vt 0.389854 0.880982
vt 0.390769 0.907018
vt 0.580815 0.964265
vt 0.580815 0.909080
vt 0.799854 0.051008
vt 0.853364 0.050937
vt 0.849608 0.071047
vt 0.816442 0.081329
vt 0.803934 0.071047
vt 0.836600 0.081282
vt 0.834415 0.066358
vt 0.835391 0.061134
vt 0.851987 0.050945
vt 0.848695 0.068564
vt 0.831036 0.069016
vt 0.837299 0.077531
vt 0.904587 0.079542
vt 0.979966 0.094769
vt 0.860713 0.114065
vt 0.917259 0.011709
vt 0.921630 0.011703
vt 0.589111 0.887151
vt 0.583179 0.883177
vt 0.581872 0.882796
vt 0.941469 0.011676
vt 0.010761 0.582209
vt 0.017280 0.582209
vt 0.178040 0.665218
vt 0.008127 0.665302
vt 0.589167 0.936673
vt 0.589167 0.889081
vt 0.589166 0.984265
vt 0.583179 0.990168
vt 0.589111 0.986194
vt 0.178040 0.582209
vt 0.581871 0.990550
vt 0.390769 0.966326
vt 0.526841 0.966234
vt 0.507131 0.992567
vt 0.527897 0.992518
vt 0.835108 0.062804
vt 0.851301 0.057751
vt 0.851513 0.048725
vt 0.835169 0.060197
vt 0.852274 0.057364
vt 0.852510 0.047327
vt 0.799617 0.051665
vt 0.801198 0.062075
vt 0.318923 0.936672
vt 0.336005 0.963338
vt 0.389854 0.992362
vt 0.393922 0.991942
vt 0.336005 0.910005
vt 0.424958 0.993058
vt 0.288738 0.014222
vt 0.305327 0.213983
vt 0.274318 0.049211
vt 0.275135 0.014460
vt 0.833698 0.066537
vt 0.846419 0.070678
vt 0.255522 0.098980
vt 0.214916 0.127596
vt 0.830651 0.068684
vt 0.835872 0.078111
vt 0.835118 0.080003
vt 0.846846 0.071738
vt 0.805607 0.070752
vt 0.816927 0.079456
vt 0.823994 0.080713
vt 0.827762 0.068868
vt 0.825868 0.078749
vt 0.825927 0.068542
vt 0.819513 0.077619
vt 0.176400 0.130054
vt 0.008127 0.176318
vt 0.151933 0.125701
vt 0.822986 0.066281
vt 0.809332 0.069791
vt 0.112739 0.095564
vt 0.013815 0.068181
vt 0.097472 0.065522
vt 0.821841 0.064027
vt 0.805367 0.061988
vt 0.092000 0.029481
vt 0.821431 0.061324
vt 0.803946 0.052627
vt 0.046405 0.030146
vt 0.321456 0.986981
vt 0.335090 0.989375
vt 0.213956 0.585179
vt 0.389255 0.622861
vt 0.383894 0.584826
vt 0.213956 0.622825
vt 0.398664 0.730998
vt 0.213956 0.731044
vt 0.272423 0.347272
vt 0.251183 0.543466
vt 0.008127 0.543647
vt 0.010791 0.359504
vt 0.335090 0.883968
vt 0.321456 0.886362
vt 0.819639 0.077573
vt 0.825801 0.069029
vt 0.981067 0.176474
vt 0.988519 0.544069
vt 0.983739 0.378951
vt 0.012922 0.747006
vt 0.178040 0.746924
vt 0.424958 0.880286
vt 0.431489 0.779326
vt 0.473903 0.777663
vt 0.486490 0.595333
vt 0.432089 0.596304
vt 0.010000 0.820000
vt 0.192857 0.777553
vt 0.010000 0.777553
vt 0.474407 0.576248
vt 0.192857 0.820000
vt 0.206261 0.777553
vt 0.444129 0.582418
vt 0.209580 0.820000
vt 0.240076 0.820000
vt 0.217899 0.777553
vt 0.248396 0.777553
vt 0.444369 0.579126
vt 0.474659 0.573012
vt 0.474811 0.593813
vt 0.591635 0.563571
vt 0.346543 0.777553
vt 0.357324 0.820000
vt 0.572341 0.584825
vt 0.572281 0.567340
vt 0.360644 0.777553
vt 0.378118 0.777553
vt 0.378117 0.820000
vt 0.591788 0.584373
vt 0.432427 0.596306
vt 0.473906 0.777741
vt 0.010000 0.870000
vt 0.010000 0.827553
vt 0.192857 0.827553
vt 0.192857 0.870000
vt 0.206261 0.827553
vt 0.209580 0.870000
vt 0.240076 0.870000
vt 0.217899 0.827553
vt 0.248396 0.827553
vt 0.346543 0.827553
vt 0.357324 0.870000
vt 0.378118 0.827553
vt 0.360644 0.827553
vt 0.378117 0.870000
s 1
f 34/53/21 36/54/21 33/55/21
f 33/53/22 35/56/22 43/54/22 34/55/22
f 38/57/23 35/58/23 33/59/23 36/59/23
f 34/53/21 44/56/21 37/60/21 36/54/21
f 37/60/24 39/61/24 36/54/24
f 40/62/25 38/57/25 36/59/25 39/61/25
f 39/61/26 37/63/26 41/64/26 40/62/26
f 38/65/27 40/62/27 41/66/27
f 35/67/28 38/65/28 41/66/28 42/56/28
f 44/53/29 42/56/29 41/64/29 37/63/29
f 35/67/28 42/56/28 43/68/28
f 43/53/30 42/56/30 44/54/30 34/55/30
f 46/69/31 48/70/31 45/71/32
f 45/71/33 47/72/33 46/69/34
f 47/72/33 45/71/33 49/73/35
f 51/69/36 45/71/37 48/70/38
f 50/72/39 49/73/40 45/71/39
f 45/71/39 51/69/41 50/72/39
f 50/74/42 51/75/42 54/76/42
f 48/70/38 52/77/43 51/69/36
f 51/75/44 52/78/44 53/79/44
f 53/79/45 54/76/45 51/75/45
f 54/76/46 57/80/46 50/74/46
f 54/76/47 53/79/47 55/81/47
f 55/81/48 56/82/49 54/76/50
f 54/76/50 56/82/49 60/83/51
f 57/80/52 54/76/52 58/84/52
f 54/76/53 59/85/53 58/84/53
f 54/76/54 60/83/54 59/85/54
f 61/86/55 65/87/55 59/88/55 60/89/55
f 61/90/56 60/91/56 56/92/56 62/93/56
f 62/93/57 139/94/57 63/95/57 61/90/57
f 63/95/58 80/96/58 64/97/58 61/90/58
f 61/98/59 64/99/60 66/100/61
f 67/101/62 65/102/62 61/98/59 66/100/61
f 67/101/63 66/100/63 68/103/63
f 66/104/64 64/105/64 72/106/64 69/107/64
f 68/108/65 66/104/65 69/107/65 70/109/65
f 69/110/66 71/111/66 57/80/66
f 57/80/67 70/112/67 69/110/67
f 69/110/68 72/113/68 73/114/68 71/111/68
f 74/115/69 73/116/69 72/117/69 64/97/69
f 74/118/70 71/111/70 73/114/70
f 74/119/71 75/120/71 78/121/71 71/122/71
f 79/123/72 75/124/72 74/115/72 76/125/72
f 80/96/73 76/125/73 74/115/73 64/97/73
f 81/126/74 77/127/74 76/125/74
f 77/119/75 82/122/75 78/121/75 76/120/75
f 79/128/76 76/120/76 78/121/76
f 80/96/77 83/129/77 81/126/77 76/125/77
f 77/118/78 81/114/78 82/111/78
f 84/110/79 82/111/79 81/114/79 83/113/79
f 87/104/80 84/107/80 83/106/80 80/105/80
f 84/110/81 85/80/81 82/111/81
f 85/80/82 84/110/82 86/112/82
f 88/108/83 86/109/83 84/107/83 87/104/83
f 90/101/84 88/103/84 87/100/85 89/98/86
f 87/100/85 80/99/87 89/98/86
f 90/101/88 89/98/88 91/102/88
f 93/130/89 89/131/89 80/96/89 63/95/89
f 89/86/90 92/89/90 146/88/90 91/87/90
f 98/132/91 92/133/91 89/131/91 93/130/91
f 94/134/92 104/135/92 96/136/92 93/137/92
f 94/138/93 93/139/93 95/140/93 109/141/93
f 97/142/94 95/143/94 93/130/94
f 93/130/95 96/144/95 101/145/95 98/132/95
f 63/95/96 133/146/96 97/142/96 93/130/96
f 101/145/97 99/147/97 98/132/97
f 99/81/98 100/76/99 98/82/100
f 100/76/99 92/83/101 98/82/100
f 101/148/102 102/79/102 99/81/102
f 102/79/103 101/148/103 103/149/103
f 104/150/104 103/149/104 101/148/104
f 104/150/105 101/148/105 96/151/105
f 107/152/106 105/153/106 104/135/106 94/134/106
f 105/154/107 103/149/107 104/150/107
f 106/155/108 103/149/108 105/154/108
f 108/156/109 106/157/109 105/153/109 107/152/109
f 108/158/110 107/159/110 94/138/110 109/141/110
f 109/141/111 118/160/111 110/161/111 108/158/111
f 108/158/112 110/161/112 111/162/112
f 111/163/113 112/164/113 106/157/113 108/156/113
f 110/165/114 114/166/114 112/164/114 111/163/114
f 112/167/115 113/168/115 106/155/115
f 114/169/116 113/168/116 112/167/116
f 118/170/117 115/171/117 114/166/117 110/165/117
f 115/172/118 113/168/118 114/169/118
f 116/173/119 115/172/119 117/174/119
f 116/173/120 113/168/120 115/172/120
f 109/175/121 117/176/121 115/171/121 118/170/121
f 116/173/122 117/174/122 119/177/122
f 95/178/123 119/179/123 117/176/123 109/175/123
f 116/173/124 119/177/124 120/180/124
f 97/142/125 120/181/125 119/182/125 95/143/125
f 97/183/126 116/184/126 120/185/126
f 116/184/127 97/183/127 121/186/127
f 121/186/128 113/187/129 116/184/130
f 113/187/129 121/186/128 122/188/131
f 123/187/132 122/188/133 121/186/134
f 124/184/135 121/186/135 97/183/135
f 121/186/134 124/184/136 123/187/132
f 124/173/137 125/172/137 123/168/137
f 124/173/138 128/174/138 125/172/138
f 97/183/139 126/185/139 124/184/139
f 124/173/140 126/180/140 127/177/140
f 124/173/141 127/177/141 128/174/141
f 129/175/142 132/170/142 125/171/142 128/176/142
f 133/178/143 129/175/143 128/176/143 127/179/143
f 130/158/144 129/141/144 134/138/144 135/159/144
f 130/158/145 144/162/145 131/161/145 129/141/145
f 131/161/146 132/160/146 129/141/146
f 133/140/147 63/139/147 134/138/147 129/141/147
f 134/134/148 63/137/148 139/136/148 136/135/148
f 135/152/149 134/134/149 136/135/149 137/153/149
f 137/154/150 136/150/150 138/149/150
f 136/150/151 62/148/151 138/149/151
f 136/150/152 139/151/152 62/148/152
f 138/189/153 140/190/153 122/191/153
f 140/190/154 138/189/154 52/77/154
f 53/79/155 52/78/155 138/149/155
f 122/191/156 123/192/156 138/189/156
f 141/155/157 138/149/157 123/168/157
f 53/79/158 138/149/158 62/148/158
f 141/155/159 137/154/159 138/149/159
f 142/167/160 141/155/160 123/168/160
f 144/163/161 130/156/161 141/157/161 142/164/161
f 130/156/162 135/152/162 137/153/162 141/157/162
f 143/169/163 142/167/163 123/168/163
f 131/165/164 144/163/164 142/164/164 143/166/164
f 132/170/165 131/165/165 143/166/165 125/171/165
f 125/172/166 143/169/166 123/168/166
f 103/189/167 122/191/167 140/190/167
f 140/190/168 145/77/168 103/189/168
f 145/77/169 140/190/169 48/70/169
f 52/77/170 48/70/170 140/190/170
f 48/70/31 46/69/31 145/77/171
f 46/75/172 102/79/172 145/78/172
f 102/79/173 103/149/173 145/78/173
f 127/193/174 126/194/174 97/142/174 133/146/174
f 122/191/175 103/189/175 113/192/175
f 106/155/176 113/168/176 103/149/176
f 102/79/177 46/75/177 100/76/177
f 100/76/178 99/81/178 102/79/178
f 100/76/179 47/74/179 85/80/179
f 47/74/180 100/76/180 46/75/180
f 85/80/181 147/84/181 100/76/181
f 100/76/182 146/85/182 92/83/182
f 100/76/183 147/84/183 146/85/183
f 91/87/184 146/88/184 147/195/184 90/196/184
f 85/80/185 86/112/185 147/84/185
f 90/196/186 147/195/186 86/109/186 88/108/186
f 82/111/187 85/80/187 148/197/187
f 148/197/188 85/80/188 47/74/188
f 149/198/189 148/199/189 47/72/189 49/73/189
f 78/121/190 82/122/190 148/200/190 149/201/190
f 78/121/191 149/201/191 150/200/191 71/122/191
f 149/198/192 49/73/192 50/72/192 150/199/192
f 71/111/193 150/197/193 57/80/193
f 150/197/194 50/74/194 57/80/194
f 79/128/76 78/121/76 75/120/76
f 57/80/195 58/84/195 70/112/195
f 67/196/196 68/108/196 70/109/196 58/195/196
f 65/87/197 67/196/197 58/195/197 59/88/197
f 62/93/198 56/92/198 55/202/198
f 62/148/199 55/81/199 53/79/199
f 151/203/200 152/204/200 156/205/200
f 151/203/200 153/205/200 152/204/200
f 153/205/200 151/203/200 154/206/200
f 155/207/201 154/208/201 151/209/201
f 155/207/202 151/209/202 157/208/202
f 156/205/200 157/206/200 151/203/200
f 157/206/200 156/205/200 159/210/200
f 157/208/202 158/211/202 155/207/202
f 158/211/203 157/208/203 160/212/203
f 159/210/200 160/213/200 157/206/200
f 160/212/204 161/214/204 158/211/204
f 162/215/205 161/214/205 160/216/205
f 160/216/205 159/217/205 162/215/205
f 161/218/206 162/219/206 163/220/206
f 163/220/206 162/219/206 164/221/206
f 165/222/207 164/223/207 162/215/207
f 162/215/208 159/217/208 165/222/208
f 166/224/200 165/225/200 159/210/200
f 164/223/209 165/226/210 166/227/211
f 159/210/200 156/205/200 166/224/200
f 166/227/211 167/228/212 164/223/209
f 164/221/206 167/229/206 163/220/206
f 163/220/206 158/230/206 161/218/206
f 158/230/206 163/220/206 168/231/206
f 168/231/206 155/203/206 158/230/206
f 168/231/206 169/230/206 155/203/206
f 169/230/206 168/231/206 170/220/206
f 170/220/206 171/218/206 169/230/206
f 171/218/206 170/220/206 172/219/206
f 170/220/206 173/221/206 172/219/206
f 173/221/206 170/220/206 174/229/206
f 175/227/213 173/223/213 174/228/213
f 175/224/200 176/210/200 177/225/200
f 176/210/200 175/224/200 153/205/200
f 173/223/214 175/227/214 177/226/214
f 177/222/215 172/215/215 173/223/215
f 172/215/216 177/222/216 176/217/216
f 176/210/200 154/206/200 178/213/200
f 154/206/200 176/210/200 153/205/200
f 178/216/217 172/215/217 176/217/217
f 178/212/218 169/211/218 171/214/218
f 169/211/219 178/212/219 154/208/219
f 172/215/217 178/216/217 171/214/217
f 154/208/201 155/207/201 169/211/201
f 180/205/200 182/206/200 179/203/200
f 179/203/200 181/204/200 180/205/200
f 179/203/200 184/205/200 181/204/200
f 183/232/220 179/233/220 182/234/220
f 183/232/221 185/234/221 179/233/221
f 184/205/200 179/203/200 185/206/200
f 185/206/200 187/210/200 184/205/200
f 185/234/221 183/232/221 186/235/221
f 186/235/222 188/236/222 185/234/222
f 187/210/200 185/206/200 188/213/200
f 188/236/223 186/235/223 189/237/223
f 190/238/224 188/239/224 189/237/224
f 188/239/224 190/238/224 187/240/224
f 189/218/206 191/220/206 190/219/206
f 191/220/206 192/221/206 190/219/206
f 193/241/225 190/238/225 192/242/225
f 190/238/226 193/241/226 187/240/226
f 194/224/200 187/210/200 193/225/200
f 192/242/227 194/243/227 193/244/227
f 187/210/200 194/224/200 184/205/200
f 194/243/228 192/242/228 195/245/228
f 192/221/206 191/220/206 195/229/206
f 191/220/206 189/218/206 186/230/206
f 186/230/206 196/231/206 191/220/206
f 197/230/206 198/220/206 196/231/206
f 196/231/206 183/203/206 197/230/206
f 196/231/206 186/230/206 183/203/206
f 198/220/206 197/230/206 199/218/206
f 199/218/206 201/219/206 198/220/206
f 200/221/206 202/229/206 198/220/206
f 198/220/206 201/219/206 200/221/206
f 203/243/229 202/245/230 200/242/231
f 203/224/200 205/225/200 204/210/200
f 204/210/200 180/205/200 203/224/200
f 200/242/231 205/244/232 203/243/229
f 205/241/233 200/242/233 201/238/233
f 201/238/234 204/240/234 205/241/234
f 204/210/200 206/213/200 182/206/200
f 182/206/200 180/205/200 204/210/200
f 206/239/235 204/240/235 201/238/235
f 206/236/236 199/237/236 197/235/236
f 197/235/237 182/234/237 206/236/237
f 201/238/235 199/237/235 206/239/235
f 182/234/220 197/235/220 183/232/220
f 212/57/238 210/59/238 207/59/238 208/58/238
f 207/53/239 209/55/239 217/54/239 208/56/239
f 209/53/240 207/55/240 210/54/240 211/60/240
f 211/60/241 210/54/241 213/61/241
f 214/62/242 213/61/242 210/59/242 212/57/242
f 213/61/243 214/62/243 215/64/243 211/63/243
f 212/65/244 215/66/244 214/62/244
f 208/67/245 215/66/245 212/65/246
f 208/67/245 217/68/245 216/56/245 215/66/245
f 218/53/247 211/63/247 215/64/247 216/56/247
f 217/53/248 209/55/248 218/54/248 216/56/248
f 209/53/240 211/60/240 218/56/240
o front_l
v 1.110216 0.747692 2.083189
v 0.844558 0.747692 2.083189
v 1.110216 0.886166 1.756965
v 1.110216 0.419101 2.215948
v 1.110216 0.092878 2.077474
v 0.844557 0.092878 2.077474
v 1.110216 -0.039882 1.748884
v 1.110216 0.753406 1.428374
v 0.844558 0.753406 1.428374
v 1.110216 0.427183 1.289900
v 1.110216 0.098592 1.422660
v 0.844558 0.098592 1.422660
v 0.844558 -0.039882 1.748884
v 0.844558 0.427183 1.289901
v 0.844558 0.886165 1.756965
v 0.844558 0.419101 2.215948
vn -0.0000 0.3746 0.9272
vn -0.0000 0.9205 0.3907
vn 1.0000 -0.0000 -0.0000
vn -0.0000 -0.9272 0.3746
vn -0.0000 -0.3907 0.9205
vn -0.0000 0.9272 -0.3746
vn -0.0000 0.3907 -0.9205
vn -0.0000 -0.3746 -0.9272
vn -0.0000 -0.9205 -0.3907
vn -1.0000 -0.0000 -0.0000
vt 0.970000 0.650000
vt 0.932570 0.650000
vt 0.932570 0.600000
vt 0.970000 0.600000
vt 0.895141 0.650000
vt 0.895141 0.600000
vt 0.926148 0.935867
vt 0.820281 0.979719
vt 0.714415 0.935867
vt 0.714415 0.724133
vt 0.670563 0.830000
vt 0.745422 0.650000
vt 0.707993 0.650000
vt 0.707993 0.600000
vt 0.745422 0.600000
vt 0.670563 0.650000
vt 0.670563 0.600000
vt 0.820281 0.680281
vt 0.926148 0.724133
vt 0.857711 0.650000
vt 0.857711 0.600000
vt 0.820281 0.650000
vt 0.820281 0.600000
vt 0.970000 0.830000
vt 0.782852 0.650000
vt 0.782852 0.600000
s 1
f 222/246/249 219/247/249 220/248/249 234/249/249
f 219/247/250 221/250/250 233/251/250 220/248/250
f 226/252/251 221/253/251 219/254/251 223/255/251
f 223/255/251 219/254/251 222/256/251
f 225/257/252 223/258/252 224/259/252 231/260/252
f 223/258/253 222/261/253 234/262/253 224/259/253
f 223/255/251 225/263/251 229/264/251 226/252/251
f 221/250/254 226/265/254 227/266/254 233/251/254
f 226/265/255 228/267/255 232/268/255 227/266/255
f 229/264/251 228/269/251 226/252/251
f 228/267/256 229/270/256 230/271/256 232/268/256
f 229/270/257 225/257/257 231/260/257 230/271/257
f 231/263/258 232/269/258 230/264/258
f 233/253/258 227/252/258 232/269/258 231/263/258
f 231/263/258 224/255/258 234/256/258 233/253/258
f 234/256/258 220/254/258 233/253/258
o back_l
v 1.090022 0.427183 -1.372662
v 0.824364 0.427182 -1.372662
v 1.090022 0.753406 -1.511136
v 1.090022 0.098592 -1.505422
v 1.090022 -0.039882 -1.831645
v 0.824364 -0.039882 -1.831645
v 1.090023 0.092877 -2.160236
v 1.090022 0.886165 -1.839727
v 0.824364 0.886165 -1.839727
v 1.090022 0.747692 -2.165951
v 1.090022 0.419101 -2.298710
v 0.824364 0.419101 -2.298710
v 0.824364 0.092877 -2.160236
v 0.824364 0.747692 -2.165951
v 0.824364 0.753406 -1.511136
v 0.824364 0.098592 -1.505422
vn -0.0000 -0.3746 0.9272
vn -0.0000 0.3907 0.9205
vn 1.0000 -0.0000 -0.0000
vn -0.0000 -0.9272 -0.3746
vn -0.0000 -0.9205 0.3907
vn -0.0000 0.9272 0.3746
vn -0.0000 0.9205 -0.3907
vn -0.0000 0.3746 -0.9272
vn -0.0000 -0.3907 -0.9205
vn -1.0000 -0.0000 -0.0000
vt 0.970000 0.650000
vt 0.932570 0.650000
vt 0.932570 0.600000
vt 0.970000 0.600000
vt 0.895141 0.650000
vt 0.895141 0.600000
vt 0.926148 0.935867
vt 0.820281 0.979719
vt 0.714415 0.935867
vt 0.714415 0.724133
vt 0.670563 0.830000
vt 0.745422 0.650000
vt 0.707993 0.650000
vt 0.707993 0.600000
vt 0.745422 0.600000
vt 0.670563 0.650000
vt 0.670563 0.600000
vt 0.820281 0.680281
vt 0.926148 0.724133
vt 0.857711 0.650000
vt 0.857711 0.600000
vt 0.820281 0.650000
vt 0.820281 0.600000
vt 0.970000 0.830000
vt 0.782852 0.650000
vt 0.782852 0.600000
s 1
f 238/272/259 235/273/259 236/274/259 250/275/259
f 235/273/260 237/276/260 249/277/260 236/274/260
f 242/278/261 237/279/261 235/280/261 239/281/261
f 239/281/261 235/280/261 238/282/261
f 241/283/262 239/284/262 240/285/262 247/286/262
f 239/284/263 238/287/263 250/288/263 240/285/263
f 239/281/261 241/289/261 245/290/261 242/278/261
f 237/276/264 242/291/264 243/292/264 249/277/264
f 242/291/265 244/293/265 248/294/265 243/292/265
f 245/290/261 244/295/261 242/278/261
f 244/293/266 245/296/266 246/297/266 248/294/266
f 245/296/267 241/283/267 247/286/267 246/297/267
f 247/289/268 248/295/268 246/290/268
f 249/279/268 243/278/268 248/295/268 247/289/268
f 247/289/268 240/281/268 250/282/268 249/279/268
f 250/282/268 236/280/268 249/279/268
